# xmcd CD database file
#
# Track frame offsets:
#	187
#	14405
#	37095
#	55550
#	79297
#	96690
#	109987
#	133242
#	156185
#	175300
#
# Disc length: 2634 seconds
#
# Revision: 12
# Processed by: cddbd v1.5.2PL0 Copyright (c) Steve Scherf et al.
# Submitted via: CDex 1.51
#
DISCID=8c0a480a
DTITLE=Siouxsie And The Banshees - Through The Looking Glass
DYEAR=1987
DGENRE=Gothic Rock
TTITLE0=This Town Ain't Big Enough For The Both Of Us
TTITLE1=Hall Of Mirrors
TTITLE2=Trust In Me
TTITLE3=This Wheel's On Fire
TTITLE4=Strange Fruit
TTITLE5=You're Lost Little Girl
TTITLE6=The Passenger
TTITLE7=Gun
TTITLE8=Sea Breezes
TTITLE9=Little Johnny Jewel
EXTD=YEAR: 1987
EXTT0=
EXTT1=
EXTT2=
EXTT3=
EXTT4=
EXTT5=
EXTT6=
EXTT7=
EXTT8=
EXTT9=
PLAYORDER=
